<svg xmlns="http://www.w3.org/2000/svg" xmlns:xlink="http://www.w3.org/1999/xlink" viewBox="0 0 1320 1800"><path fill="#a3d977" d="M540 90a70 70 0 1 1-140 0 70 70 0 0 1 140 0zm0 1620a70 70 0 1 1-140 0 70 70 0 0 1 140 0z"/><path d="M470 160h1.5v1.5h-3V160z"/><path fill="#ffc374" d="M20 490h220v80H20zm340 614h220v80H360zm0 356h220v80H360zm0-1220h220v80H360zm0 500h220v80H360zm0 182h220v80H360zm110-502l110 110-110 110-110-110z"/><use x="425.6" y="272.8" xlink:href="#H"/><use x="406" y="294.4" xlink:href="#M"/><use x="458" y="294.4" xlink:href="#N"/><use x="483" y="294.4" xlink:href="#P"/><use x="410.8" y="512.2" xlink:href="#T"/><use x="464" y="512.2" xlink:href="#V"/><use x="416.2" y="533.6" xlink:href="#X"/><use x="484.3" y="533.6" xlink:href="#Y"/><use x="504" y="533.6" xlink:href="#Z"/><use x="433" y="554.9" xlink:href="#b"/><path d="M471.5 321.5h-3V320h3zM360 530a1.5 1.5 0 1 1-3 0 1.5 1.5 0 0 1 3 0zm-12.2 0a1.5 1.5 0 1 1-3 0 1.5 1.5 0 0 1 3 0zm-12.3 0a1.5 1.5 0 1 1-3 0 1.5 1.5 0 0 1 3 0zm-12.2 0c0 .8-.7 1.5-1.5 1.5a1.5 1.5 0 1 1 1.5-1.5zm-12.3 0a1.5 1.5 0 1 1-3 0 1.5 1.5 0 0 1 3 0zm-12.2 0a1.5 1.5 0 1 1-3 0 1.5 1.5 0 0 1 3 0zm-12.2 0c0 .8-.7 1.5-1.5 1.5-.9 0-1.5-.7-1.5-1.5s.6-1.5 1.5-1.5c.8 0 1.5.7 1.5 1.5zm-12.3 0a1.5 1.5 0 1 1-3 0 1.5 1.5 0 0 1 3 0z"/><path d="M360 530l1.5 1.5h-3v-3h3z"/><use x="294.5" y="512.1" xlink:href="#f"/><use x="60" y="522.8" xlink:href="#h"/><use x="123" y="522.8" xlink:href="#j"/><use x="153" y="522.8" xlink:href="#k"/><use x="73" y="544.4" xlink:href="#l"/><use x="144" y="544.4" xlink:href="#n"/><use x="409" y="772.8" xlink:href="#o"/><use x="467" y="772.8" xlink:href="#p"/><use x="432" y="794.4" xlink:href="#q"/><use x="466" y="794.4" xlink:href="#u"/><path d="M471.5 641.5h-3v-3l1.5 1.5 1.5-1.5z"/><path fill="#ffeca9" d="M1080 490h220v80h-220zm-341 798h220v80H739zm1-184h220v80H740zm0-864h220v80H740zm0 500h220v80H740zm0 180h220v80H740zm110-500l110 110-110 110-110-110z"/><g stroke="#000" stroke-width="3"><path d="M470 235.2l-4.6-14.3h9.2zM1075.2 530l-14.3 4.6v-9.2zm-830.4 0l14.3-4.6v9.2zM470 1099.2l-4.6-14.3h9.2zm0 357.6l-4.6-14.3h9.2zm0 178.4l-4.6-14.3h9.2zm0-1220.1l-4.6-14.2h9.2zm0 320l-4.6-14.2h9.2zm0 182l-4.6-14.2h9.2zM735.1 280l-14.2 4.6v-9.2zM849 1283.2l-4.6-14.3h9.2zm1-184l-4.6-14.3h9.2zm0-684.1l-4.6-14.2h9.2zm0 320l-4.6-14.2h9.2zm0 180l-4.6-14.2h9.2z"/><path fill="none" d="M470 161.5v57.9m0 784.1v79.9m0-79.9v-1.5m0 539.5v77.9m0-77.9v-1.5m0-1218.5v77.9m0 242.1v77.9m0-77.9v77.9m0-77.9V640m0 181.5v79.9m0-79.9V820m111.5 324H660V280h59.4M849 1185.5v81.9m0-81.9v-1.5m0 185v45H470v27.5m380-440v81.9m0-761.9v77.9m0 242.1v77.9m0 102.1v77.9"/></g><use x="394" y="954.8" xlink:href="#x"/><use x="406" y="976.4" xlink:href="#M"/><use x="458" y="976.4" xlink:href="#N"/><use x="483" y="976.4" xlink:href="#P"/><use x="405" y="1147.6" xlink:href="#o"/><use x="463" y="1147.6" xlink:href="#y"/><use x="805.5" y="272.8" xlink:href="#H"/><use x="793.1" y="294.4" xlink:href="#M"/><use x="845" y="294.4" xlink:href="#N"/><use x="870" y="294.4" xlink:href="#z"/><path d="M581.5 1145.5H580v-3h1.5z"/><use x="790.8" y="512.2" xlink:href="#T"/><use x="844" y="512.2" xlink:href="#V"/><use x="796.2" y="533.6" xlink:href="#X"/><use x="864.3" y="533.6" xlink:href="#Y"/><use x="884" y="533.6" xlink:href="#Z"/><use x="813" y="554.9" xlink:href="#b"/><path d="M851.5 321.5h-3V320h3z"/><use x="795.1" y="772.8" xlink:href="#AA"/><use x="841" y="772.8" xlink:href="#p"/><use x="812" y="794.4" xlink:href="#q"/><use x="846" y="794.4" xlink:href="#u"/><use x="774" y="952.8" xlink:href="#x"/><use x="793.1" y="974.4" xlink:href="#M"/><use x="845" y="974.4" xlink:href="#N"/><use x="870" y="974.4" xlink:href="#z"/><use x="791.1" y="1147.6" xlink:href="#AA"/><use x="837" y="1147.6" xlink:href="#y"/><path d="M851.5 1001.5h-3v-1.5h3z"/><use x="778.6" y="1320.8" xlink:href="#AB"/><use x="792.1" y="1342.4" xlink:href="#M"/><use x="844" y="1342.4" xlink:href="#N"/><use x="869" y="1342.4" xlink:href="#z"/><use x="399.6" y="1492.8" xlink:href="#AB"/><use x="406" y="1514.4" xlink:href="#M"/><use x="458" y="1514.4" xlink:href="#N"/><use x="483" y="1514.4" xlink:href="#P"/><path d="M850 1369h-2v-1h2zm1.5-727.5h-3v-3l1.5 1.5 1.5-1.5zm0 180h-3V820h3z"/><use x="1120" y="522.8" xlink:href="#h"/><use x="1183" y="522.8" xlink:href="#j"/><use x="1213" y="522.8" xlink:href="#k"/><use x="1133" y="544.4" xlink:href="#l"/><use x="1204" y="544.4" xlink:href="#n"/><path d="M963 530a1.5 1.5 0 1 1-3 0 1.5 1.5 0 0 1 3 0zm12.2 0c0 .8-.6 1.5-1.5 1.5a1.5 1.5 0 1 1 1.5-1.5zm12.3 0a1.5 1.5 0 1 1-3 0 1.5 1.5 0 0 1 3 0zm12.2 0a1.5 1.5 0 1 1-3 0 1.5 1.5 0 0 1 3 0zm12.2 0a1.5 1.5 0 1 1-3 0 1.5 1.5 0 0 1 3 0zm12.3 0c0 .8-.7 1.5-1.5 1.5a1.5 1.5 0 1 1 1.5-1.5zm12.2 0c0 .8-.6 1.5-1.5 1.5-.8 0-1.5-.7-1.5-1.5s.7-1.5 1.5-1.5c.9 0 1.5.7 1.5 1.5zm12.3 0c0 .8-.7 1.5-1.5 1.5a1.5 1.5 0 1 1 1.5-1.5z"/><path d="M961.5 531.5h-3l1.5-1.5-1.5-1.5h3z"/><use x="993.5" y="512.1" xlink:href="#f"/><defs><path id="A" d="M96-169c-40 0-48 33-48 73s9 75 48 75c24 0 41-14 43-38l32 2c-6 37-31 61-74 61-59 0-76-41-82-99-10-93 101-131 147-64 4 7 5 14 7 22l-32 3c-4-21-16-35-41-35"/><path id="B" d="M100-194c62-1 85 37 85 99 1 63-27 99-86 99S16-35 15-95c0-66 28-99 85-99zM99-20c44 1 53-31 53-75 0-43-8-75-51-75s-53 32-53 75 10 74 51 75"/><path id="C" d="M117-194c89-4 53 116 60 194h-32v-121c0-31-8-49-39-48C34-167 62-67 57 0H25l-1-190h30c1 10-1 24 2 32 11-22 29-35 61-36"/><path id="D" d="M135-143c-3-34-86-38-87 0 15 53 115 12 119 90S17 21 10-45l28-5c4 36 97 45 98 0-10-56-113-15-118-90-4-57 82-63 122-42 12 7 21 19 24 35"/><path id="E" d="M59-47c-2 24 18 29 38 22v24C64 9 27 4 27-40v-127H5v-23h24l9-43h21v43h35v23H59v120"/><path id="F" d="M114-163C36-179 61-72 57 0H25l-1-190h30c1 12-1 29 2 39 6-27 23-49 58-41v29"/><path id="G" d="M84 4C-5 8 30-112 23-190h32v120c0 31 7 50 39 49 72-2 45-101 50-169h31l1 190h-30c-1-10 1-25-2-33-11 22-28 36-60 37"/><g id="H"><use transform="scale(.05)" xlink:href="#A"/><use transform="translate(9) scale(.05)" xlink:href="#B"/><use transform="translate(19) scale(.05)" xlink:href="#C"/><use transform="translate(29) scale(.05)" xlink:href="#D"/><use transform="translate(38) scale(.05)" xlink:href="#E"/><use transform="translate(43) scale(.05)" xlink:href="#F"/><use transform="translate(49) scale(.05)" xlink:href="#G"/><use transform="translate(59) scale(.05)" xlink:href="#A"/><use transform="translate(68) scale(.05)" xlink:href="#E"/><use transform="translate(73) scale(.05)" xlink:href="#B"/><use transform="translate(83) scale(.05)" xlink:href="#F"/></g><path id="I" d="M141-36C126-15 110 5 73 4 37 3 15-17 15-53c-1-64 63-63 125-63 3-35-9-54-41-54-24 1-41 7-42 31l-33-3c5-37 33-52 76-52 45 0 72 20 72 64v82c-1 20 7 32 28 27v20c-31 9-61-2-59-35zM48-53c0 20 12 33 32 33 41-3 63-29 60-74-43 2-92-5-92 41"/><path id="J" d="M24 0v-261h32V0H24"/><path id="K" d="M100-194c63 0 86 42 84 106H49c0 40 14 67 53 68 26 1 43-12 49-29l28 8c-11 28-37 45-77 45C44 4 14-33 15-96c1-61 26-98 85-98zm52 81c6-60-76-77-97-28-3 7-6 17-6 28h103"/><path id="L" d="M85-194c31 0 48 13 60 33l-1-100h32l1 261h-30c-2-10 0-23-3-31C134-8 116 4 85 4 32 4 16-35 15-94c0-66 23-100 70-100zm9 24c-40 0-46 34-46 75 0 40 6 74 45 74 42 0 51-32 51-76 0-42-9-74-50-73"/><g id="M"><use transform="scale(.05)" xlink:href="#A"/><use transform="translate(9) scale(.05)" xlink:href="#I"/><use transform="translate(19) scale(.05)" xlink:href="#J"/><use transform="translate(23) scale(.05)" xlink:href="#J"/><use transform="translate(26.9) scale(.05)" xlink:href="#K"/><use transform="translate(36.9) scale(.05)" xlink:href="#L"/></g><g id="N"><use transform="scale(.05)" xlink:href="#B"/><use transform="translate(10) scale(.05)" xlink:href="#C"/></g><path id="O" d="M115-194c55 1 70 41 70 98S169 2 115 4C84 4 66-9 55-30l1 105H24l-1-265h31l2 30c10-21 28-34 59-34zm-8 174c40 0 45-34 45-75s-6-73-45-74c-42 0-51 32-51 76 0 43 10 73 51 73"/><g id="P"><use transform="scale(.05)" xlink:href="#O"/><use transform="translate(10) scale(.05)" xlink:href="#I"/><use transform="translate(20) scale(.05)" xlink:href="#F"/><use transform="translate(26) scale(.05)" xlink:href="#K"/><use transform="translate(36) scale(.05)" xlink:href="#C"/><use transform="translate(46) scale(.05)" xlink:href="#E"/></g><path id="Q" d="M30-248c87 1 191-15 191 75 0 78-77 80-158 76V0H30v-248zm33 125c57 0 124 11 124-50 0-59-68-47-124-48v98"/><path id="R" d="M115-194c53 0 69 39 70 98 0 66-23 100-70 100C84 3 66-7 56-30L54 0H23l1-261h32v101c10-23 28-34 59-34zm-8 174c40 0 45-34 45-75 0-40-5-75-45-74-42 0-51 32-51 76 0 43 10 73 51 73"/><path id="S" d="M24-231v-30h32v30H24zM24 0v-190h32V0H24"/><g id="T"><use transform="scale(.04938)" xlink:href="#Q"/><use transform="translate(11.9) scale(.0494)" xlink:href="#G"/><use transform="translate(21.7) scale(.0494)" xlink:href="#R"/><use transform="translate(31.6) scale(.0494)" xlink:href="#J"/><use transform="translate(35.5) scale(.0494)" xlink:href="#S"/><use transform="translate(39.4) scale(.0494)" xlink:href="#A"/></g><path id="U" d="M179-190L93 31C79 59 56 82 12 73V49c39 6 53-20 64-50L1-190h34L92-34l54-156h33"/><g id="V"><use transform="scale(.04938)" xlink:href="#O"/><use transform="translate(9.9) scale(.0494)" xlink:href="#F"/><use transform="translate(15.8) scale(.0494)" xlink:href="#B"/><use transform="translate(25.6) scale(.0494)" xlink:href="#O"/><use transform="translate(35.5) scale(.0494)" xlink:href="#K"/><use transform="translate(45.4) scale(.0494)" xlink:href="#F"/><use transform="translate(51.3) scale(.0494)" xlink:href="#E"/><use transform="translate(56.2) scale(.0494)" xlink:href="#U"/></g><path id="W" d="M177-190C167-65 218 103 67 71c-23-6-38-20-44-43l32-5c15 47 100 32 89-28v-30C133-14 115 1 83 1 29 1 15-40 15-95c0-56 16-97 71-98 29-1 48 16 59 35 1-10 0-23 2-32h30zM94-22c36 0 50-32 50-73 0-42-14-75-50-75-39 0-46 34-46 75s6 73 46 73"/><g id="X"><use transform="scale(.04938)" xlink:href="#O"/><use transform="translate(9.9) scale(.0494)" xlink:href="#K"/><use transform="translate(19.8) scale(.0494)" xlink:href="#C"/><use transform="translate(29.6) scale(.0494)" xlink:href="#L"/><use transform="translate(39.5) scale(.0494)" xlink:href="#S"/><use transform="translate(43.4) scale(.0494)" xlink:href="#C"/><use transform="translate(53.3) scale(.0494)" xlink:href="#W"/></g><g id="Y"><use transform="scale(.04938)" xlink:href="#E"/><use transform="translate(5) scale(.0494)" xlink:href="#B"/></g><g id="Z"><use transform="scale(.04938)" xlink:href="#R"/><use transform="translate(9.9) scale(.0494)" xlink:href="#K"/></g><path id="a" d="M103-251c84 0 111 97 45 133-19 10-37 24-39 52H78c0-63 77-55 77-114 0-30-21-42-52-43-32 0-53 17-56 46l-32-2c7-45 34-72 88-72zM77 0v-35h34V0H77"/><g id="b"><use transform="scale(.04938)" xlink:href="#G"/><use transform="translate(9.9) scale(.0494)" xlink:href="#O"/><use transform="translate(19.8) scale(.0494)" xlink:href="#L"/><use transform="translate(29.6) scale(.0494)" xlink:href="#I"/><use transform="translate(39.5) scale(.0494)" xlink:href="#E"/><use transform="translate(44.4) scale(.0494)" xlink:href="#K"/><use transform="translate(54.3) scale(.0494)" xlink:href="#L"/><use transform="translate(64.2) scale(.0494)" xlink:href="#a"/></g><path id="c" d="M146-102V0H94v-102L6-248h54l60 105 60-105h54"/><path id="d" d="M185-48c-13 30-37 53-82 52C43 2 14-33 14-96s30-98 90-98c62 0 83 45 84 108H66c0 31 8 55 39 56 18 0 30-7 34-22zm-45-69c5-46-57-63-70-21-2 6-4 13-4 21h74"/><path id="e" d="M137-138c1-29-70-34-71-4 15 46 118 7 119 86 1 83-164 76-172 9l43-7c4 19 20 25 44 25 33 8 57-30 24-41C81-84 22-81 20-136c-2-80 154-74 161-7"/><g id="f"><use transform="scale(.05)" xlink:href="#c"/><use transform="translate(11) scale(.05)" xlink:href="#d"/><use transform="translate(21) scale(.05)" xlink:href="#e"/></g><path id="g" d="M232-93c-1 65-40 97-104 97C67 4 28-28 28-90v-158h33c8 89-33 224 67 224 102 0 64-133 71-224h33v155"/><g id="h"><use transform="scale(.05)" xlink:href="#g"/><use transform="translate(13) scale(.05)" xlink:href="#O"/><use transform="translate(23) scale(.05)" xlink:href="#L"/><use transform="translate(33) scale(.05)" xlink:href="#I"/><use transform="translate(43) scale(.05)" xlink:href="#E"/><use transform="translate(48) scale(.05)" xlink:href="#K"/></g><path id="i" d="M106-169C34-169 62-67 57 0H25v-261h32l-1 103c12-21 28-36 61-36 89 0 53 116 60 194h-32v-121c2-32-8-49-39-48"/><g id="j"><use transform="scale(.05)" xlink:href="#E"/><use transform="translate(5) scale(.05)" xlink:href="#i"/><use transform="translate(15) scale(.05)" xlink:href="#K"/></g><g id="k"><use transform="scale(.05)" xlink:href="#O"/><use transform="translate(10) scale(.05)" xlink:href="#G"/><use transform="translate(20) scale(.05)" xlink:href="#R"/><use transform="translate(30) scale(.05)" xlink:href="#J"/><use transform="translate(34) scale(.05)" xlink:href="#S"/><use transform="translate(37.9) scale(.05)" xlink:href="#A"/></g><g id="l"><use transform="scale(.05)" xlink:href="#O"/><use transform="translate(10) scale(.05)" xlink:href="#F"/><use transform="translate(16) scale(.05)" xlink:href="#B"/><use transform="translate(26) scale(.05)" xlink:href="#O"/><use transform="translate(36) scale(.05)" xlink:href="#K"/><use transform="translate(46) scale(.05)" xlink:href="#F"/><use transform="translate(51.9) scale(.05)" xlink:href="#E"/><use transform="translate(56.9) scale(.05)" xlink:href="#U"/></g><path id="m" d="M108 0H70L1-190h34L89-25l56-165h34"/><g id="n"><use transform="scale(.05)" xlink:href="#m"/><use transform="translate(9) scale(.05)" xlink:href="#I"/><use transform="translate(19) scale(.05)" xlink:href="#J"/><use transform="translate(23) scale(.05)" xlink:href="#G"/><use transform="translate(33) scale(.05)" xlink:href="#K"/></g><g id="o"><use transform="scale(.05)" xlink:href="#Q"/><use transform="translate(12) scale(.05)" xlink:href="#I"/><use transform="translate(22) scale(.05)" xlink:href="#F"/><use transform="translate(28) scale(.05)" xlink:href="#K"/><use transform="translate(38) scale(.05)" xlink:href="#C"/><use transform="translate(48) scale(.05)" xlink:href="#E"/></g><g id="p"><use transform="scale(.05)" xlink:href="#S"/><use transform="translate(4) scale(.05)" xlink:href="#C"/><use transform="translate(14) scale(.05)" xlink:href="#D"/><use transform="translate(23) scale(.05)" xlink:href="#K"/><use transform="translate(33) scale(.05)" xlink:href="#F"/><use transform="translate(38.9) scale(.05)" xlink:href="#E"/><use transform="translate(43.9) scale(.05)" xlink:href="#K"/><use transform="translate(53.9) scale(.05)" xlink:href="#L"/></g><g id="q"><use transform="scale(.05)" xlink:href="#S"/><use transform="translate(4) scale(.05)" xlink:href="#C"/><use transform="translate(14) scale(.05)" xlink:href="#E"/><use transform="translate(19) scale(.05)" xlink:href="#B"/></g><path id="r" d="M30-248c118-7 216 8 213 122C240-48 200 0 122 0H30v-248zM63-27c89 8 146-16 146-99s-60-101-146-95v194"/><path id="s" d="M140-251c81 0 123 46 123 126C263-46 219 4 140 4 59 4 17-45 17-125s42-126 123-126zm0 227c63 0 89-41 89-101s-29-99-89-99c-61 0-89 39-89 99S79-25 140-24"/><path id="t" d="M240 0l2-218c-23 76-54 145-80 218h-23L58-218 59 0H30v-248h44l77 211c21-75 51-140 76-211h43V0h-30"/><g id="u"><use transform="scale(.05)" xlink:href="#r"/><use transform="translate(13) scale(.05)" xlink:href="#s"/><use transform="translate(27) scale(.05)" xlink:href="#t"/></g><path id="v" d="M212-179c-10-28-35-45-73-45-59 0-87 40-87 99 0 60 29 101 89 101 43 0 62-24 78-52l27 14C228-24 195 4 139 4 59 4 22-46 18-125c-6-104 99-153 187-111 19 9 31 26 39 46"/><path id="w" d="M143 0L79-87 56-68V0H24v-261h32v163l83-92h37l-77 82L181 0h-38"/><g id="x"><use transform="scale(.05)" xlink:href="#A"/><use transform="translate(9) scale(.05)" xlink:href="#B"/><use transform="translate(19) scale(.05)" xlink:href="#C"/><use transform="translate(29) scale(.05)" xlink:href="#C"/><use transform="translate(39) scale(.05)" xlink:href="#K"/><use transform="translate(49) scale(.05)" xlink:href="#A"/><use transform="translate(58) scale(.05)" xlink:href="#E"/><use transform="translate(63) scale(.05)" xlink:href="#K"/><use transform="translate(73) scale(.05)" xlink:href="#L"/><use transform="translate(83) scale(.05)" xlink:href="#v"/><use transform="translate(96) scale(.05)" xlink:href="#I"/><use transform="translate(106) scale(.05)" xlink:href="#J"/><use transform="translate(109.9) scale(.05)" xlink:href="#J"/><use transform="translate(113.9) scale(.05)" xlink:href="#R"/><use transform="translate(123.9) scale(.05)" xlink:href="#I"/><use transform="translate(133.9) scale(.05)" xlink:href="#A"/><use transform="translate(142.9) scale(.05)" xlink:href="#w"/></g><g id="y"><use transform="scale(.05)" xlink:href="#F"/><use transform="translate(6) scale(.05)" xlink:href="#K"/><use transform="translate(16) scale(.05)" xlink:href="#C"/><use transform="translate(26) scale(.05)" xlink:href="#L"/><use transform="translate(36) scale(.05)" xlink:href="#K"/><use transform="translate(46) scale(.05)" xlink:href="#F"/><use transform="translate(51.9) scale(.05)" xlink:href="#K"/><use transform="translate(61.9) scale(.05)" xlink:href="#L"/></g><g id="z"><use transform="scale(.05)" xlink:href="#A"/><use transform="translate(9) scale(.05)" xlink:href="#i"/><use transform="translate(19) scale(.05)" xlink:href="#S"/><use transform="translate(23) scale(.05)" xlink:href="#J"/><use transform="translate(26.9) scale(.05)" xlink:href="#L"/></g><g id="AA"><use transform="scale(.05)" xlink:href="#v"/><use transform="translate(13) scale(.05)" xlink:href="#i"/><use transform="translate(23) scale(.05)" xlink:href="#S"/><use transform="translate(26.9) scale(.05)" xlink:href="#J"/><use transform="translate(30.9) scale(.05)" xlink:href="#L"/></g><g id="AB"><use transform="scale(.05)" xlink:href="#F"/><use transform="translate(6) scale(.05)" xlink:href="#K"/><use transform="translate(16) scale(.05)" xlink:href="#C"/><use transform="translate(26) scale(.05)" xlink:href="#L"/><use transform="translate(36) scale(.05)" xlink:href="#K"/><use transform="translate(46) scale(.05)" xlink:href="#F"/><use transform="translate(51.9) scale(.05)" xlink:href="#K"/><use transform="translate(61.9) scale(.05)" xlink:href="#L"/><use transform="translate(71.9) scale(.05)" xlink:href="#v"/><use transform="translate(84.9) scale(.05)" xlink:href="#I"/><use transform="translate(94.9) scale(.05)" xlink:href="#J"/><use transform="translate(98.8) scale(.05)" xlink:href="#J"/><use transform="translate(102.8) scale(.05)" xlink:href="#R"/><use transform="translate(112.8) scale(.05)" xlink:href="#I"/><use transform="translate(122.8) scale(.05)" xlink:href="#A"/><use transform="translate(131.8) scale(.05)" xlink:href="#w"/></g></defs></svg>
